# xmcd
#
# Track frame offsets:
# 150
# 20277
# 33832
# 60967
#
# Disc length: 1113 seconds
#
#
# Revision: 1
# Processed by: cddbd v1.5.1PL2 Copyright (c) Steve Scherf et al.
# Submitted via: FreeRIP 2.945 
#
DISCID=20045704
DTITLE=Bob Geldof -  - Crazy
DYEAR=1994
DGENRE=Blues
TTITLE0=Bob Geldof - Crazy
TTITLE1=Bob Geldof - Looking After Number One (Live)
TTITLE2=Bob Geldof - The Beat Of The Night (Live)
TTITLE3=Bob Geldof - Room 19 (Live)
EXTD=
EXTT0=
EXTT1=
EXTT2=
EXTT3=
PLAYORDER=
